<svg width="32" height="32" viewBox="0 0 32 32" fill="none" xmlns="http://www.w3.org/2000/svg">
<circle cx="16" cy="16" r="16" fill="#98A2B3"/>
<path d="M16 9.25C14.1591 9.25 12.6667 10.761 12.6667 12.625C12.6667 14.489 14.1591 16 16 16C17.8409 16 19.3333 14.489 19.3333 12.625C19.3333 10.761 17.8409 9.25 16 9.25Z" fill="#FCFCFD"/>
<path d="M13.3333 17.35C12.4493 17.35 11.6014 17.7056 10.9763 18.3385C10.3512 18.9714 10 19.8299 10 20.725V22.075C10 22.4478 10.2985 22.75 10.6667 22.75H21.3333C21.7015 22.75 22 22.4478 22 22.075V20.725C22 19.8299 21.6488 18.9714 21.0237 18.3385C20.3986 17.7056 19.5507 17.35 18.6667 17.35H13.3333Z" fill="#FCFCFD"/>
</svg>
